<?xml version="1.0" standalone="no"?>
<!DOCTYPE svg PUBLIC "-//W3C//DTD SVG 20010904//EN"
 "http://www.w3.org/TR/2001/REC-SVG-20010904/DTD/svg10.dtd">
<svg version="1.0" xmlns="http://www.w3.org/2000/svg"
 width="595.000000pt" height="595.000000pt" viewBox="0 0 595.000000 595.000000"
 preserveAspectRatio="xMidYMid meet">
<metadata>
Created by potrace 1.11, written by Peter Selinger 2001-2013
</metadata>
<g transform="translate(0.000000,595.000000) scale(0.100000,-0.100000)"
fill="#000000" stroke="none">
<path d="M2780 5530 c-1096 -86 -2018 -864 -2283 -1927 -59 -234 -72 -346 -72
-623 1 -186 5 -273 18 -360 75 -474 255 -886 546 -1248 103 -126 309 -327 439
-426 762 -579 1782 -684 2647 -272 252 120 472 275 679 476 413 401 662 888
753 1470 25 164 25 557 -1 725 -113 737 -519 1373 -1136 1778 -129 84 -380
210 -520 261 -325 117 -733 173 -1070 146z m343 -2080 c226 -70 376 -308 340
-541 -30 -194 -174 -356 -358 -404 -68 -17 -179 -19 -245 -4 -257 59 -430 341
-365 594 44 171 159 296 325 352 87 30 212 31 303 3z m-942 -735 c88 -264 292
-459 564 -541 80 -24 106 -27 230 -27 123 0 151 3 228 26 281 86 484 285 573
562 l22 70 657 3 657 2 -7 -62 c-41 -386 -210 -787 -465 -1108 -84 -105 -268
-285 -374 -364 -301 -226 -648 -370 -1016 -421 -152 -21 -429 -21 -580 0 -466
65 -871 263 -1208 590 -365 353 -583 795 -647 1313 l-7 52 671 -2 672 -3 30
-90z"/>
</g>
</svg>
